<mxfile host="app.diagrams.net" modified="2023-05-22T15:47:55.310Z" agent="Mozilla/5.0 (Macintosh; Intel Mac OS X 10_15_7) AppleWebKit/537.36 (KHTML, like Gecko) Chrome/113.0.0.0 Safari/537.36" etag="UNJ3Ofy9F4mwkq9Dmqmj" version="21.3.2" type="github">
  <diagram name="Page-1" id="ZpCXJM2OZs5EDx99vhO1">
    <mxGraphModel dx="1727" dy="934" grid="1" gridSize="10" guides="1" tooltips="1" connect="1" arrows="1" fold="1" page="1" pageScale="1" pageWidth="1100" pageHeight="850" math="0" shadow="0">
      <root>
        <mxCell id="0" />
        <mxCell id="1" parent="0" />
        <mxCell id="6Wfh3h5kYWrmnL0nMxnj-1" value="Fuzzy Tree for Hider" style="text;strokeColor=none;fillColor=none;html=1;fontSize=24;fontStyle=1;verticalAlign=middle;align=center;" vertex="1" parent="1">
          <mxGeometry x="320" y="110" width="100" height="40" as="geometry" />
        </mxCell>
        <mxCell id="6Wfh3h5kYWrmnL0nMxnj-41" style="edgeStyle=orthogonalEdgeStyle;rounded=0;orthogonalLoop=1;jettySize=auto;html=1;entryX=0.57;entryY=0.16;entryDx=0;entryDy=0;entryPerimeter=0;" edge="1" parent="1" source="6Wfh3h5kYWrmnL0nMxnj-3" target="6Wfh3h5kYWrmnL0nMxnj-40">
          <mxGeometry relative="1" as="geometry" />
        </mxCell>
        <mxCell id="6Wfh3h5kYWrmnL0nMxnj-3" value="Start" style="rounded=0;whiteSpace=wrap;html=1;" vertex="1" parent="1">
          <mxGeometry x="515" y="200" width="70" height="30" as="geometry" />
        </mxCell>
        <mxCell id="6Wfh3h5kYWrmnL0nMxnj-15" value="" style="edgeStyle=orthogonalEdgeStyle;rounded=0;orthogonalLoop=1;jettySize=auto;html=1;" edge="1" parent="1" source="6Wfh3h5kYWrmnL0nMxnj-11" target="6Wfh3h5kYWrmnL0nMxnj-14">
          <mxGeometry relative="1" as="geometry" />
        </mxCell>
        <mxCell id="6Wfh3h5kYWrmnL0nMxnj-11" value="Where do we travel" style="shape=parallelogram;perimeter=parallelogramPerimeter;whiteSpace=wrap;html=1;fixedSize=1;" vertex="1" parent="1">
          <mxGeometry x="352.5" y="400" width="155" height="60" as="geometry" />
        </mxCell>
        <mxCell id="6Wfh3h5kYWrmnL0nMxnj-19" style="edgeStyle=orthogonalEdgeStyle;rounded=0;orthogonalLoop=1;jettySize=auto;html=1;entryX=0.5;entryY=0.1;entryDx=0;entryDy=0;entryPerimeter=0;" edge="1" parent="1" source="6Wfh3h5kYWrmnL0nMxnj-14" target="6Wfh3h5kYWrmnL0nMxnj-18">
          <mxGeometry relative="1" as="geometry" />
        </mxCell>
        <mxCell id="6Wfh3h5kYWrmnL0nMxnj-14" value="Direction, Distance" style="whiteSpace=wrap;html=1;" vertex="1" parent="1">
          <mxGeometry x="370" y="520" width="120" height="60" as="geometry" />
        </mxCell>
        <mxCell id="6Wfh3h5kYWrmnL0nMxnj-20" value="End of One Cycle" style="edgeStyle=orthogonalEdgeStyle;rounded=0;orthogonalLoop=1;jettySize=auto;html=1;entryX=1;entryY=0.5;entryDx=0;entryDy=0;exitX=0.875;exitY=0.5;exitDx=0;exitDy=0;exitPerimeter=0;" edge="1" parent="1" source="6Wfh3h5kYWrmnL0nMxnj-18" target="6Wfh3h5kYWrmnL0nMxnj-3">
          <mxGeometry x="0.0093" y="-10" relative="1" as="geometry">
            <Array as="points">
              <mxPoint x="670" y="660" />
              <mxPoint x="670" y="215" />
            </Array>
            <mxPoint y="1" as="offset" />
          </mxGeometry>
        </mxCell>
        <mxCell id="6Wfh3h5kYWrmnL0nMxnj-18" value="Path Finding Algo" style="ellipse;shape=cloud;whiteSpace=wrap;html=1;" vertex="1" parent="1">
          <mxGeometry x="360" y="620" width="140" height="80" as="geometry" />
        </mxCell>
        <mxCell id="6Wfh3h5kYWrmnL0nMxnj-24" value="&lt;h1 style=&quot;text-align: center;&quot;&gt;Notes:&lt;/h1&gt;&lt;div style=&quot;text-align: center;&quot;&gt;Need to Identify Appropriate Inputs and how to get them&lt;/div&gt;&lt;div&gt;&lt;br&gt;&lt;/div&gt;&lt;div&gt;&lt;br&gt;&lt;/div&gt;&lt;div&gt;This is based off of direction and distance since hiders dont think of their movements in terms of location but more like direction and distance. this would work with the ui for player as well as the ai playing by itself&lt;/div&gt;" style="text;html=1;strokeColor=none;fillColor=none;spacing=5;spacingTop=-20;whiteSpace=wrap;overflow=hidden;rounded=0;movable=0;resizable=0;rotatable=0;deletable=0;editable=0;locked=1;connectable=0;" vertex="1" parent="1">
          <mxGeometry x="800" y="190" width="190" height="230" as="geometry" />
        </mxCell>
        <mxCell id="6Wfh3h5kYWrmnL0nMxnj-37" style="edgeStyle=orthogonalEdgeStyle;rounded=0;orthogonalLoop=1;jettySize=auto;html=1;" edge="1" parent="1" source="6Wfh3h5kYWrmnL0nMxnj-28">
          <mxGeometry relative="1" as="geometry">
            <mxPoint x="220" y="670" as="targetPoint" />
            <Array as="points">
              <mxPoint x="70" y="670" />
            </Array>
          </mxGeometry>
        </mxCell>
        <mxCell id="6Wfh3h5kYWrmnL0nMxnj-28" value="Random Direction, Distance" style="whiteSpace=wrap;html=1;" vertex="1" parent="1">
          <mxGeometry x="10" y="440" width="120" height="60" as="geometry" />
        </mxCell>
        <mxCell id="6Wfh3h5kYWrmnL0nMxnj-35" style="edgeStyle=orthogonalEdgeStyle;rounded=0;orthogonalLoop=1;jettySize=auto;html=1;" edge="1" parent="1" source="6Wfh3h5kYWrmnL0nMxnj-32" target="6Wfh3h5kYWrmnL0nMxnj-34">
          <mxGeometry relative="1" as="geometry" />
        </mxCell>
        <mxCell id="6Wfh3h5kYWrmnL0nMxnj-32" value="Where Do We travel" style="shape=parallelogram;perimeter=parallelogramPerimeter;whiteSpace=wrap;html=1;fixedSize=1;" vertex="1" parent="1">
          <mxGeometry x="160" y="440" width="120" height="60" as="geometry" />
        </mxCell>
        <mxCell id="6Wfh3h5kYWrmnL0nMxnj-36" style="edgeStyle=orthogonalEdgeStyle;rounded=0;orthogonalLoop=1;jettySize=auto;html=1;entryX=0.101;entryY=0.589;entryDx=0;entryDy=0;entryPerimeter=0;" edge="1" parent="1" source="6Wfh3h5kYWrmnL0nMxnj-34" target="6Wfh3h5kYWrmnL0nMxnj-18">
          <mxGeometry relative="1" as="geometry">
            <Array as="points">
              <mxPoint x="220" y="670" />
              <mxPoint x="378" y="670" />
              <mxPoint x="378" y="667" />
            </Array>
          </mxGeometry>
        </mxCell>
        <mxCell id="6Wfh3h5kYWrmnL0nMxnj-34" value="Direction, Distance" style="whiteSpace=wrap;html=1;" vertex="1" parent="1">
          <mxGeometry x="160" y="540" width="120" height="60" as="geometry" />
        </mxCell>
        <mxCell id="6Wfh3h5kYWrmnL0nMxnj-42" value="Yes" style="edgeStyle=orthogonalEdgeStyle;rounded=0;orthogonalLoop=1;jettySize=auto;html=1;entryX=0.5;entryY=0;entryDx=0;entryDy=0;" edge="1" parent="1" source="6Wfh3h5kYWrmnL0nMxnj-40" target="6Wfh3h5kYWrmnL0nMxnj-11">
          <mxGeometry relative="1" as="geometry" />
        </mxCell>
        <mxCell id="6Wfh3h5kYWrmnL0nMxnj-44" style="edgeStyle=orthogonalEdgeStyle;rounded=0;orthogonalLoop=1;jettySize=auto;html=1;entryX=0.4;entryY=0.1;entryDx=0;entryDy=0;entryPerimeter=0;" edge="1" parent="1" source="6Wfh3h5kYWrmnL0nMxnj-40" target="6Wfh3h5kYWrmnL0nMxnj-43">
          <mxGeometry relative="1" as="geometry">
            <Array as="points">
              <mxPoint x="248" y="290" />
            </Array>
          </mxGeometry>
        </mxCell>
        <mxCell id="6Wfh3h5kYWrmnL0nMxnj-40" value="Is Seeker Within Line Of Sight" style="ellipse;shape=cloud;whiteSpace=wrap;html=1;" vertex="1" parent="1">
          <mxGeometry x="370" y="240" width="130" height="100" as="geometry" />
        </mxCell>
        <mxCell id="6Wfh3h5kYWrmnL0nMxnj-45" value="No" style="edgeStyle=orthogonalEdgeStyle;rounded=0;orthogonalLoop=1;jettySize=auto;html=1;" edge="1" parent="1" source="6Wfh3h5kYWrmnL0nMxnj-43" target="6Wfh3h5kYWrmnL0nMxnj-28">
          <mxGeometry relative="1" as="geometry" />
        </mxCell>
        <mxCell id="6Wfh3h5kYWrmnL0nMxnj-46" value="Yes" style="edgeStyle=orthogonalEdgeStyle;rounded=0;orthogonalLoop=1;jettySize=auto;html=1;entryX=0.583;entryY=0;entryDx=0;entryDy=0;entryPerimeter=0;" edge="1" parent="1" source="6Wfh3h5kYWrmnL0nMxnj-43" target="6Wfh3h5kYWrmnL0nMxnj-32">
          <mxGeometry relative="1" as="geometry" />
        </mxCell>
        <mxCell id="6Wfh3h5kYWrmnL0nMxnj-43" value="&lt;meta charset=&quot;utf-8&quot;&gt;&lt;span style=&quot;color: rgb(240, 240, 240); font-family: Helvetica; font-size: 12px; font-style: normal; font-variant-ligatures: normal; font-variant-caps: normal; font-weight: 400; letter-spacing: normal; orphans: 2; text-align: center; text-indent: 0px; text-transform: none; widows: 2; word-spacing: 0px; -webkit-text-stroke-width: 0px; background-color: rgb(42, 37, 47); text-decoration-thickness: initial; text-decoration-style: initial; text-decoration-color: initial; float: none; display: inline !important;&quot;&gt;Can we hear seeker&lt;/span&gt;" style="ellipse;shape=cloud;whiteSpace=wrap;html=1;" vertex="1" parent="1">
          <mxGeometry x="180" y="310" width="120" height="80" as="geometry" />
        </mxCell>
        <mxCell id="6Wfh3h5kYWrmnL0nMxnj-68" value="" style="shape=table;startSize=0;container=1;collapsible=0;childLayout=tableLayout;movable=0;resizable=0;rotatable=0;deletable=0;editable=0;locked=1;connectable=0;" vertex="1" parent="1">
          <mxGeometry x="820" y="470" width="150" height="160" as="geometry" />
        </mxCell>
        <mxCell id="6Wfh3h5kYWrmnL0nMxnj-69" value="" style="shape=tableRow;horizontal=0;startSize=0;swimlaneHead=0;swimlaneBody=0;strokeColor=inherit;top=0;left=0;bottom=0;right=0;collapsible=0;dropTarget=0;fillColor=none;points=[[0,0.5],[1,0.5]];portConstraint=eastwest;movable=0;resizable=0;rotatable=0;deletable=0;editable=0;locked=1;connectable=0;" vertex="1" parent="6Wfh3h5kYWrmnL0nMxnj-68">
          <mxGeometry width="150" height="40" as="geometry" />
        </mxCell>
        <mxCell id="6Wfh3h5kYWrmnL0nMxnj-70" value="Shape" style="shape=partialRectangle;html=1;whiteSpace=wrap;connectable=0;strokeColor=inherit;overflow=hidden;fillColor=none;top=0;left=0;bottom=0;right=0;pointerEvents=1;movable=0;resizable=0;rotatable=0;deletable=0;editable=0;locked=1;" vertex="1" parent="6Wfh3h5kYWrmnL0nMxnj-69">
          <mxGeometry width="60" height="40" as="geometry">
            <mxRectangle width="60" height="40" as="alternateBounds" />
          </mxGeometry>
        </mxCell>
        <mxCell id="6Wfh3h5kYWrmnL0nMxnj-71" value="Significance" style="shape=partialRectangle;html=1;whiteSpace=wrap;connectable=0;strokeColor=inherit;overflow=hidden;fillColor=none;top=0;left=0;bottom=0;right=0;pointerEvents=1;movable=0;resizable=0;rotatable=0;deletable=0;editable=0;locked=1;" vertex="1" parent="6Wfh3h5kYWrmnL0nMxnj-69">
          <mxGeometry x="60" width="90" height="40" as="geometry">
            <mxRectangle width="90" height="40" as="alternateBounds" />
          </mxGeometry>
        </mxCell>
        <mxCell id="6Wfh3h5kYWrmnL0nMxnj-72" value="" style="shape=tableRow;horizontal=0;startSize=0;swimlaneHead=0;swimlaneBody=0;strokeColor=inherit;top=0;left=0;bottom=0;right=0;collapsible=0;dropTarget=0;fillColor=none;points=[[0,0.5],[1,0.5]];portConstraint=eastwest;movable=0;resizable=0;rotatable=0;deletable=0;editable=0;locked=1;connectable=0;" vertex="1" parent="6Wfh3h5kYWrmnL0nMxnj-68">
          <mxGeometry y="40" width="150" height="40" as="geometry" />
        </mxCell>
        <mxCell id="6Wfh3h5kYWrmnL0nMxnj-73" value="Cloud" style="shape=partialRectangle;html=1;whiteSpace=wrap;connectable=0;strokeColor=inherit;overflow=hidden;fillColor=none;top=0;left=0;bottom=0;right=0;pointerEvents=1;movable=0;resizable=0;rotatable=0;deletable=0;editable=0;locked=1;" vertex="1" parent="6Wfh3h5kYWrmnL0nMxnj-72">
          <mxGeometry width="60" height="40" as="geometry">
            <mxRectangle width="60" height="40" as="alternateBounds" />
          </mxGeometry>
        </mxCell>
        <mxCell id="6Wfh3h5kYWrmnL0nMxnj-74" value="Unreal Algo" style="shape=partialRectangle;html=1;whiteSpace=wrap;connectable=0;strokeColor=inherit;overflow=hidden;fillColor=none;top=0;left=0;bottom=0;right=0;pointerEvents=1;movable=0;resizable=0;rotatable=0;deletable=0;editable=0;locked=1;" vertex="1" parent="6Wfh3h5kYWrmnL0nMxnj-72">
          <mxGeometry x="60" width="90" height="40" as="geometry">
            <mxRectangle width="90" height="40" as="alternateBounds" />
          </mxGeometry>
        </mxCell>
        <mxCell id="6Wfh3h5kYWrmnL0nMxnj-75" value="" style="shape=tableRow;horizontal=0;startSize=0;swimlaneHead=0;swimlaneBody=0;strokeColor=inherit;top=0;left=0;bottom=0;right=0;collapsible=0;dropTarget=0;fillColor=none;points=[[0,0.5],[1,0.5]];portConstraint=eastwest;movable=0;resizable=0;rotatable=0;deletable=0;editable=0;locked=1;connectable=0;" vertex="1" parent="6Wfh3h5kYWrmnL0nMxnj-68">
          <mxGeometry y="80" width="150" height="40" as="geometry" />
        </mxCell>
        <mxCell id="6Wfh3h5kYWrmnL0nMxnj-76" value="Parallel" style="shape=partialRectangle;html=1;whiteSpace=wrap;connectable=0;strokeColor=inherit;overflow=hidden;fillColor=none;top=0;left=0;bottom=0;right=0;pointerEvents=1;movable=0;resizable=0;rotatable=0;deletable=0;editable=0;locked=1;" vertex="1" parent="6Wfh3h5kYWrmnL0nMxnj-75">
          <mxGeometry width="60" height="40" as="geometry">
            <mxRectangle width="60" height="40" as="alternateBounds" />
          </mxGeometry>
        </mxCell>
        <mxCell id="6Wfh3h5kYWrmnL0nMxnj-77" value="Fuzzy" style="shape=partialRectangle;html=1;whiteSpace=wrap;connectable=0;strokeColor=inherit;overflow=hidden;fillColor=none;top=0;left=0;bottom=0;right=0;pointerEvents=1;movable=0;resizable=0;rotatable=0;deletable=0;editable=0;locked=1;" vertex="1" parent="6Wfh3h5kYWrmnL0nMxnj-75">
          <mxGeometry x="60" width="90" height="40" as="geometry">
            <mxRectangle width="90" height="40" as="alternateBounds" />
          </mxGeometry>
        </mxCell>
        <mxCell id="6Wfh3h5kYWrmnL0nMxnj-78" value="" style="shape=tableRow;horizontal=0;startSize=0;swimlaneHead=0;swimlaneBody=0;strokeColor=inherit;top=0;left=0;bottom=0;right=0;collapsible=0;dropTarget=0;fillColor=none;points=[[0,0.5],[1,0.5]];portConstraint=eastwest;movable=0;resizable=0;rotatable=0;deletable=0;editable=0;locked=1;connectable=0;" vertex="1" parent="6Wfh3h5kYWrmnL0nMxnj-68">
          <mxGeometry y="120" width="150" height="40" as="geometry" />
        </mxCell>
        <mxCell id="6Wfh3h5kYWrmnL0nMxnj-79" value="Box" style="shape=partialRectangle;html=1;whiteSpace=wrap;connectable=0;strokeColor=inherit;overflow=hidden;fillColor=none;top=0;left=0;bottom=0;right=0;pointerEvents=1;movable=0;resizable=0;rotatable=0;deletable=0;editable=0;locked=1;" vertex="1" parent="6Wfh3h5kYWrmnL0nMxnj-78">
          <mxGeometry width="60" height="40" as="geometry">
            <mxRectangle width="60" height="40" as="alternateBounds" />
          </mxGeometry>
        </mxCell>
        <mxCell id="6Wfh3h5kYWrmnL0nMxnj-80" value="Results" style="shape=partialRectangle;html=1;whiteSpace=wrap;connectable=0;strokeColor=inherit;overflow=hidden;fillColor=none;top=0;left=0;bottom=0;right=0;pointerEvents=1;movable=0;resizable=0;rotatable=0;deletable=0;editable=0;locked=1;" vertex="1" parent="6Wfh3h5kYWrmnL0nMxnj-78">
          <mxGeometry x="60" width="90" height="40" as="geometry">
            <mxRectangle width="90" height="40" as="alternateBounds" />
          </mxGeometry>
        </mxCell>
        <mxCell id="6Wfh3h5kYWrmnL0nMxnj-81" value="Legend" style="whiteSpace=wrap;html=1;movable=0;resizable=0;rotatable=0;deletable=0;editable=0;locked=1;connectable=0;" vertex="1" parent="1">
          <mxGeometry x="820" y="440" width="150" height="30" as="geometry" />
        </mxCell>
      </root>
    </mxGraphModel>
  </diagram>
</mxfile>
